<svg width="50" height="50" viewBox="0 0 21 21" fill="none" xmlns="http://www.w3.org/2000/svg">
<path fill-rule="evenodd" clip-rule="evenodd" d="M20.125 10.3918C20.125 15.7005 15.8641 19.9175 10.5 19.9175C5.13593 19.9175 0.875 15.7005 0.875 10.3918C0.875 5.08299 5.13593 0.86598 10.5 0.86598C15.8641 0.86598 20.125 5.08299 20.125 10.3918ZM21 10.3918C21 16.131 16.299 20.7835 10.5 20.7835C4.70101 20.7835 0 16.131 0 10.3918C0 4.65255 4.70101 0 10.5 0C16.299 0 21 4.65255 21 10.3918ZM4.66672 6.92789C4.66672 5.5728 5.63085 4.61861 7.00006 4.61861C8.36926 4.61861 9.33339 5.5728 9.33339 6.92789C9.33339 8.13528 8.59816 8.99448 7.43756 9.19906V11.5846C8.59816 11.7891 9.33339 12.6483 9.33339 13.8557C9.33339 15.2108 8.36926 16.165 7.00006 16.165C5.63085 16.165 4.66672 15.2108 4.66672 13.8557C4.66672 12.6483 5.40196 11.7891 6.56256 11.5846V9.19906C5.40196 8.99448 4.66672 8.13528 4.66672 6.92789ZM11.6667 6.92789C11.6667 5.5728 12.6308 4.61861 14.0001 4.61861C15.3693 4.61861 16.3334 5.5728 16.3334 6.92789C16.3334 8.13528 15.5982 8.99448 14.4376 9.19906V11.5846C15.5982 11.7891 16.3334 12.6483 16.3334 13.8557C16.3334 15.2108 15.3693 16.165 14.0001 16.165C12.6308 16.165 11.6667 15.2108 11.6667 13.8557C11.6667 12.6483 12.402 11.7891 13.5626 11.5846V9.19906C12.402 8.99448 11.6667 8.13528 11.6667 6.92789ZM7.00006 5.34026C6.1141 5.34026 5.39589 6.05106 5.39589 6.92789C5.39589 7.65453 5.88926 8.26736 6.56256 8.45579V7.33624C6.56256 6.87158 6.93924 6.4949 7.4039 6.4949C7.42249 6.4949 7.43756 6.50996 7.43756 6.52855V8.45579C8.11085 8.26736 8.60422 7.65453 8.60422 6.92789C8.60422 6.05106 7.88601 5.34026 7.00006 5.34026ZM14.0001 5.34026C13.1141 5.34026 12.3959 6.05106 12.3959 6.92789C12.3959 7.65453 12.8893 8.26736 13.5626 8.45579V6.52855C13.5626 6.50996 13.5776 6.4949 13.5962 6.4949C14.0609 6.4949 14.4376 6.87158 14.4376 7.33624V8.45579C15.1108 8.26736 15.6042 7.65453 15.6042 6.92789C15.6042 6.05106 14.886 5.34026 14.0001 5.34026ZM6.56256 12.3278C5.88926 12.5162 5.39589 13.1291 5.39589 13.8557C5.39589 14.7325 6.1141 15.4434 7.00006 15.4434C7.88601 15.4434 8.60422 14.7325 8.60422 13.8557C8.60422 13.1291 8.11085 12.5162 7.43756 12.3278V14.2551C7.43756 14.2736 7.42249 14.2887 7.4039 14.2887C6.93924 14.2887 6.56256 13.912 6.56256 13.4474V12.3278ZM13.5626 12.3278C12.8893 12.5162 12.3959 13.1291 12.3959 13.8557C12.3959 14.7325 13.1141 15.4434 14.0001 15.4434C14.886 15.4434 15.6042 14.7325 15.6042 13.8557C15.6042 13.1291 15.1108 12.5162 14.4376 12.3278V13.4474C14.4376 13.912 14.0609 14.2887 13.5962 14.2887C13.5776 14.2887 13.5626 14.2736 13.5626 14.2551V12.3278Z" fill="#1F1E2C"/>
</svg>
